<mxfile host="65bd71144e">
    <diagram id="S1GNPO0mFxfOkr_b8TGO" name="Page-1">
        <mxGraphModel dx="2767" dy="2331" grid="1" gridSize="10" guides="1" tooltips="1" connect="1" arrows="1" fold="1" page="1" pageScale="1" pageWidth="827" pageHeight="1169" background="#FFFFFF" math="0" shadow="0">
            <root>
                <mxCell id="0"/>
                <mxCell id="1" parent="0"/>
                <mxCell id="2" value="mhl_cities" style="swimlane;whiteSpace=wrap;html=1;" vertex="1" parent="1">
                    <mxGeometry x="530" y="120" width="140" height="100" as="geometry"/>
                </mxCell>
                <mxCell id="16" value="id&lt;div&gt;commune_ID&lt;/div&gt;&lt;div&gt;name&lt;/div&gt;" style="text;html=1;align=center;verticalAlign=middle;resizable=0;points=[];autosize=1;strokeColor=none;fillColor=none;" vertex="1" parent="2">
                    <mxGeometry x="25" y="25" width="90" height="60" as="geometry"/>
                </mxCell>
                <mxCell id="3" value="mhl_suppliers_mhl_rubriek_view" style="swimlane;whiteSpace=wrap;html=1;" vertex="1" parent="1">
                    <mxGeometry x="520" y="-100" width="230" height="100" as="geometry"/>
                </mxCell>
                <mxCell id="35" value="id&lt;div&gt;mhl_suppliers_ID&lt;/div&gt;&lt;div&gt;mhl_rubriek_view_ID&lt;/div&gt;" style="text;html=1;align=center;verticalAlign=middle;resizable=0;points=[];autosize=1;strokeColor=none;fillColor=none;" vertex="1" parent="3">
                    <mxGeometry x="45" y="28" width="140" height="60" as="geometry"/>
                </mxCell>
                <mxCell id="4" value="mhl_rubrieken" style="swimlane;whiteSpace=wrap;html=1;" vertex="1" parent="1">
                    <mxGeometry x="810" y="-100" width="190" height="100" as="geometry"/>
                </mxCell>
                <mxCell id="36" value="id&lt;div&gt;parent&lt;/div&gt;&lt;div&gt;display_order&lt;/div&gt;&lt;div&gt;name&lt;/div&gt;" style="text;html=1;align=center;verticalAlign=middle;resizable=0;points=[];autosize=1;strokeColor=none;fillColor=none;" vertex="1" parent="4">
                    <mxGeometry x="45" y="28" width="100" height="70" as="geometry"/>
                </mxCell>
                <mxCell id="5" value="mhl_membertypes" style="swimlane;whiteSpace=wrap;html=1;" vertex="1" parent="1">
                    <mxGeometry x="310" y="-100" width="140" height="100" as="geometry"/>
                </mxCell>
                <mxCell id="34" value="id&lt;div&gt;name&lt;/div&gt;&lt;div&gt;sort_order&lt;/div&gt;&lt;div&gt;ulevel&lt;/div&gt;" style="text;html=1;align=center;verticalAlign=middle;resizable=0;points=[];autosize=1;strokeColor=none;fillColor=none;" vertex="1" parent="5">
                    <mxGeometry x="30" y="23" width="80" height="70" as="geometry"/>
                </mxCell>
                <mxCell id="6" value="suppliers" style="swimlane;whiteSpace=wrap;html=1;" vertex="1" parent="1">
                    <mxGeometry x="280" y="120" width="200" height="200" as="geometry"/>
                </mxCell>
                <mxCell id="15" value="id&lt;div&gt;membertype&lt;/div&gt;&lt;div&gt;company&lt;/div&gt;&lt;div&gt;name&lt;/div&gt;&lt;div&gt;straat&lt;/div&gt;&lt;div&gt;huisnr&lt;/div&gt;&lt;div&gt;postcode&lt;/div&gt;&lt;div&gt;city_ID&lt;/div&gt;&lt;div&gt;p_address&lt;/div&gt;&lt;div&gt;p_postcode&lt;/div&gt;&lt;div&gt;p_city_ID&lt;/div&gt;" style="text;html=1;align=center;verticalAlign=middle;resizable=0;points=[];autosize=1;strokeColor=none;fillColor=none;" vertex="1" parent="6">
                    <mxGeometry x="55" y="20" width="90" height="170" as="geometry"/>
                </mxCell>
                <mxCell id="7" value="mhl_contacts" style="swimlane;whiteSpace=wrap;html=1;" vertex="1" parent="1">
                    <mxGeometry x="400" y="370" width="140" height="140" as="geometry"/>
                </mxCell>
                <mxCell id="30" value="id&lt;div&gt;supplier_ID&lt;/div&gt;&lt;div&gt;department&lt;/div&gt;&lt;div&gt;contacttype&lt;/div&gt;&lt;div&gt;name&lt;/div&gt;&lt;div&gt;email&lt;/div&gt;&lt;div&gt;tel&lt;/div&gt;" style="text;html=1;align=center;verticalAlign=middle;resizable=0;points=[];autosize=1;strokeColor=none;fillColor=none;" vertex="1" parent="7">
                    <mxGeometry x="30" y="25" width="80" height="110" as="geometry"/>
                </mxCell>
                <mxCell id="8" value="mhl_communes" style="swimlane;whiteSpace=wrap;html=1;" vertex="1" parent="1">
                    <mxGeometry x="710" y="120" width="140" height="100" as="geometry"/>
                </mxCell>
                <mxCell id="17" value="id&lt;div&gt;district_ID&lt;/div&gt;&lt;div&gt;name&lt;/div&gt;" style="text;html=1;align=center;verticalAlign=middle;resizable=0;points=[];autosize=1;strokeColor=none;fillColor=none;" vertex="1" parent="8">
                    <mxGeometry x="30" y="25" width="80" height="60" as="geometry"/>
                </mxCell>
                <mxCell id="9" value="mhl_propertytypes" style="swimlane;whiteSpace=wrap;html=1;" vertex="1" parent="1">
                    <mxGeometry x="-90" y="160" width="140" height="120" as="geometry"/>
                </mxCell>
                <mxCell id="25" value="id&lt;div&gt;csvreg&lt;/div&gt;&lt;div&gt;name&lt;/div&gt;&lt;div&gt;proptype&lt;/div&gt;&lt;div&gt;display&lt;/div&gt;&lt;div&gt;is_filter&lt;/div&gt;" style="text;html=1;align=center;verticalAlign=middle;resizable=0;points=[];autosize=1;strokeColor=none;fillColor=none;" vertex="1" parent="9">
                    <mxGeometry x="35" y="20" width="70" height="100" as="geometry"/>
                </mxCell>
                <mxCell id="10" value="mhl_detaildefs" style="swimlane;whiteSpace=wrap;html=1;" vertex="1" parent="1">
                    <mxGeometry x="-270" y="145" width="140" height="150" as="geometry"/>
                </mxCell>
                <mxCell id="26" value="id&lt;div&gt;vlevel&lt;/div&gt;&lt;div&gt;group_ID&lt;/div&gt;&lt;div&gt;display_order&lt;/div&gt;&lt;div&gt;properties&lt;/div&gt;&lt;div&gt;propertytype_ID&lt;/div&gt;&lt;div&gt;property_DEF&lt;/div&gt;&lt;div&gt;display_name&lt;/div&gt;" style="text;html=1;align=center;verticalAlign=middle;resizable=0;points=[];autosize=1;strokeColor=none;fillColor=none;" vertex="1" parent="10">
                    <mxGeometry x="15" y="20" width="110" height="130" as="geometry"/>
                </mxCell>
                <mxCell id="11" value="mhl_hitcount" style="swimlane;whiteSpace=wrap;html=1;" vertex="1" parent="1">
                    <mxGeometry x="220" y="370" width="140" height="100" as="geometry"/>
                </mxCell>
                <mxCell id="29" value="supplier_ID&lt;div&gt;year&lt;/div&gt;&lt;div&gt;month&lt;/div&gt;&lt;div&gt;hitcount&lt;/div&gt;" style="text;html=1;align=center;verticalAlign=middle;resizable=0;points=[];autosize=1;strokeColor=none;fillColor=none;" vertex="1" parent="11">
                    <mxGeometry x="30" y="20" width="80" height="70" as="geometry"/>
                </mxCell>
                <mxCell id="12" value="mhl_yn_properties" style="swimlane;whiteSpace=wrap;html=1;" vertex="1" parent="1">
                    <mxGeometry x="90" y="100" width="140" height="100" as="geometry"/>
                </mxCell>
                <mxCell id="22" value="id&lt;div&gt;supplier_ID&lt;/div&gt;&lt;div&gt;propertytype_ID&lt;/div&gt;&lt;div&gt;content&lt;/div&gt;" style="text;html=1;align=center;verticalAlign=middle;resizable=0;points=[];autosize=1;strokeColor=none;fillColor=none;" vertex="1" parent="12">
                    <mxGeometry x="15" y="20" width="110" height="70" as="geometry"/>
                </mxCell>
                <mxCell id="13" value="mhl_departments" style="swimlane;whiteSpace=wrap;html=1;" vertex="1" parent="1">
                    <mxGeometry x="400" y="550" width="140" height="100" as="geometry"/>
                </mxCell>
                <mxCell id="31" value="id&lt;div&gt;name&lt;/div&gt;" style="text;html=1;align=center;verticalAlign=middle;resizable=0;points=[];autosize=1;strokeColor=none;fillColor=none;" vertex="1" parent="13">
                    <mxGeometry x="45" y="40" width="50" height="40" as="geometry"/>
                </mxCell>
                <mxCell id="18" value="mhl_districts" style="swimlane;whiteSpace=wrap;html=1;" vertex="1" parent="1">
                    <mxGeometry x="890" y="115" width="140" height="110" as="geometry"/>
                </mxCell>
                <mxCell id="19" value="id&lt;div&gt;country_ID&lt;/div&gt;&lt;div&gt;code&lt;/div&gt;&lt;div&gt;name&lt;/div&gt;&lt;div&gt;display_order&lt;/div&gt;" style="text;html=1;align=center;verticalAlign=middle;resizable=0;points=[];autosize=1;strokeColor=none;fillColor=none;" vertex="1" parent="18">
                    <mxGeometry x="20" y="20" width="100" height="90" as="geometry"/>
                </mxCell>
                <mxCell id="20" value="mhl_countries" style="swimlane;whiteSpace=wrap;html=1;" vertex="1" parent="1">
                    <mxGeometry x="1110" y="120" width="140" height="100" as="geometry"/>
                </mxCell>
                <mxCell id="21" value="id&lt;div&gt;code&lt;div&gt;name&lt;/div&gt;&lt;/div&gt;&lt;div&gt;display&lt;/div&gt;" style="text;html=1;align=center;verticalAlign=middle;resizable=0;points=[];autosize=1;strokeColor=none;fillColor=none;" vertex="1" parent="20">
                    <mxGeometry x="40" y="25" width="60" height="70" as="geometry"/>
                </mxCell>
                <mxCell id="23" value="mhl_properties" style="swimlane;whiteSpace=wrap;html=1;" vertex="1" parent="1">
                    <mxGeometry x="90" y="240" width="140" height="100" as="geometry"/>
                </mxCell>
                <mxCell id="24" value="id&lt;div&gt;supplier_ID&lt;/div&gt;&lt;div&gt;propertytype_ID&lt;/div&gt;&lt;div&gt;content&lt;/div&gt;" style="text;html=1;align=center;verticalAlign=middle;resizable=0;points=[];autosize=1;strokeColor=none;fillColor=none;" vertex="1" parent="23">
                    <mxGeometry x="15" y="30" width="110" height="70" as="geometry"/>
                </mxCell>
                <mxCell id="27" value="mhl_detailgroups" style="swimlane;whiteSpace=wrap;html=1;" vertex="1" parent="1">
                    <mxGeometry x="-450" y="170" width="140" height="100" as="geometry"/>
                </mxCell>
                <mxCell id="28" value="id&lt;div&gt;display_order&lt;div&gt;name&lt;/div&gt;&lt;/div&gt;" style="text;html=1;align=center;verticalAlign=middle;resizable=0;points=[];autosize=1;strokeColor=none;fillColor=none;" vertex="1" parent="27">
                    <mxGeometry x="20" y="25" width="100" height="60" as="geometry"/>
                </mxCell>
                <mxCell id="32" value="mhl_companies" style="swimlane;whiteSpace=wrap;html=1;" vertex="1" parent="1">
                    <mxGeometry x="100" y="-100" width="140" height="100" as="geometry"/>
                </mxCell>
                <mxCell id="33" value="id&lt;div&gt;name&lt;/div&gt;" style="text;html=1;align=center;verticalAlign=middle;resizable=0;points=[];autosize=1;strokeColor=none;fillColor=none;" vertex="1" parent="32">
                    <mxGeometry x="45" y="38" width="50" height="40" as="geometry"/>
                </mxCell>
                <mxCell id="37" value="pc_lat_long" style="swimlane;whiteSpace=wrap;html=1;" vertex="1" parent="1">
                    <mxGeometry x="530" y="240" width="140" height="120" as="geometry"/>
                </mxCell>
                <mxCell id="41" value="id&lt;div&gt;pc6&lt;/div&gt;&lt;div&gt;lat&lt;/div&gt;&lt;div&gt;lng&lt;/div&gt;" style="text;html=1;align=center;verticalAlign=middle;resizable=0;points=[];autosize=1;strokeColor=none;fillColor=none;" vertex="1" parent="37">
                    <mxGeometry x="50" y="30" width="40" height="70" as="geometry"/>
                </mxCell>
                <mxCell id="38" value="mhl_brands" style="swimlane;whiteSpace=wrap;html=1;" vertex="1" parent="1">
                    <mxGeometry x="770" y="420" width="140" height="100" as="geometry"/>
                </mxCell>
                <mxCell id="39" value="id&lt;div&gt;name&lt;/div&gt;" style="text;html=1;align=center;verticalAlign=middle;resizable=0;points=[];autosize=1;strokeColor=none;fillColor=none;" vertex="1" parent="38">
                    <mxGeometry x="45" y="35" width="50" height="40" as="geometry"/>
                </mxCell>
                <mxCell id="46" value="" style="fontSize=12;html=1;endArrow=ERoneToMany;entryX=1;entryY=0.5;entryDx=0;entryDy=0;exitX=0;exitY=0.5;exitDx=0;exitDy=0;" edge="1" parent="1" source="20" target="18">
                    <mxGeometry width="100" height="100" relative="1" as="geometry">
                        <mxPoint x="360" y="370" as="sourcePoint"/>
                        <mxPoint x="890" y="260" as="targetPoint"/>
                    </mxGeometry>
                </mxCell>
                <mxCell id="48" value="" style="fontSize=12;html=1;endArrow=ERoneToMany;exitX=0;exitY=0.5;exitDx=0;exitDy=0;entryX=1;entryY=0.5;entryDx=0;entryDy=0;" edge="1" parent="1" source="18" target="8">
                    <mxGeometry width="100" height="100" relative="1" as="geometry">
                        <mxPoint x="360" y="370" as="sourcePoint"/>
                        <mxPoint x="460" y="270" as="targetPoint"/>
                    </mxGeometry>
                </mxCell>
                <mxCell id="49" value="" style="edgeStyle=entityRelationEdgeStyle;fontSize=12;html=1;endArrow=ERoneToMany;entryX=1;entryY=0.25;entryDx=0;entryDy=0;exitX=0;exitY=0.5;exitDx=0;exitDy=0;" edge="1" parent="1" source="2" target="6">
                    <mxGeometry width="100" height="100" relative="1" as="geometry">
                        <mxPoint x="360" y="370" as="sourcePoint"/>
                        <mxPoint x="460" y="270" as="targetPoint"/>
                    </mxGeometry>
                </mxCell>
                <mxCell id="50" value="" style="edgeStyle=entityRelationEdgeStyle;fontSize=12;html=1;endArrow=ERoneToMany;exitX=0;exitY=0.5;exitDx=0;exitDy=0;entryX=1;entryY=0.5;entryDx=0;entryDy=0;" edge="1" parent="1" source="8" target="2">
                    <mxGeometry width="100" height="100" relative="1" as="geometry">
                        <mxPoint x="360" y="370" as="sourcePoint"/>
                        <mxPoint x="460" y="270" as="targetPoint"/>
                    </mxGeometry>
                </mxCell>
                <mxCell id="51" value="" style="edgeStyle=orthogonalEdgeStyle;fontSize=12;html=1;endArrow=ERoneToMany;exitX=0.5;exitY=1;exitDx=0;exitDy=0;entryX=0.5;entryY=0;entryDx=0;entryDy=0;" edge="1" parent="1" source="6" target="11">
                    <mxGeometry width="100" height="100" relative="1" as="geometry">
                        <mxPoint x="50" y="520" as="sourcePoint"/>
                        <mxPoint x="150" y="420" as="targetPoint"/>
                    </mxGeometry>
                </mxCell>
                <mxCell id="52" value="" style="edgeStyle=orthogonalEdgeStyle;fontSize=12;html=1;endArrow=ERoneToMany;exitX=0.5;exitY=1;exitDx=0;exitDy=0;entryX=0.5;entryY=0;entryDx=0;entryDy=0;" edge="1" parent="1" source="6" target="7">
                    <mxGeometry width="100" height="100" relative="1" as="geometry">
                        <mxPoint x="730" y="520" as="sourcePoint"/>
                        <mxPoint x="830" y="420" as="targetPoint"/>
                    </mxGeometry>
                </mxCell>
                <mxCell id="55" value="" style="fontSize=12;html=1;endArrow=ERoneToMany;entryX=0.5;entryY=1;entryDx=0;entryDy=0;exitX=0.5;exitY=0;exitDx=0;exitDy=0;" edge="1" parent="1" source="13" target="7">
                    <mxGeometry width="100" height="100" relative="1" as="geometry">
                        <mxPoint x="360" y="370" as="sourcePoint"/>
                        <mxPoint x="460" y="270" as="targetPoint"/>
                    </mxGeometry>
                </mxCell>
                <mxCell id="56" value="" style="edgeStyle=orthogonalEdgeStyle;fontSize=12;html=1;endArrow=ERoneToMany;exitX=0;exitY=0.75;exitDx=0;exitDy=0;entryX=1;entryY=0.5;entryDx=0;entryDy=0;" edge="1" parent="1" source="6" target="23">
                    <mxGeometry width="100" height="100" relative="1" as="geometry">
                        <mxPoint x="360" y="370" as="sourcePoint"/>
                        <mxPoint x="460" y="270" as="targetPoint"/>
                    </mxGeometry>
                </mxCell>
                <mxCell id="57" value="" style="edgeStyle=orthogonalEdgeStyle;fontSize=12;html=1;endArrow=ERoneToMany;exitX=0;exitY=0.25;exitDx=0;exitDy=0;entryX=1;entryY=0.5;entryDx=0;entryDy=0;" edge="1" parent="1" source="6" target="12">
                    <mxGeometry width="100" height="100" relative="1" as="geometry">
                        <mxPoint x="360" y="370" as="sourcePoint"/>
                        <mxPoint x="460" y="270" as="targetPoint"/>
                    </mxGeometry>
                </mxCell>
                <mxCell id="58" value="" style="edgeStyle=orthogonalEdgeStyle;fontSize=12;html=1;endArrow=ERoneToMany;exitX=1;exitY=0.75;exitDx=0;exitDy=0;entryX=0;entryY=0.5;entryDx=0;entryDy=0;" edge="1" parent="1" source="9" target="23">
                    <mxGeometry width="100" height="100" relative="1" as="geometry">
                        <mxPoint x="-180" y="440" as="sourcePoint"/>
                        <mxPoint y="430" as="targetPoint"/>
                    </mxGeometry>
                </mxCell>
                <mxCell id="60" value="" style="edgeStyle=entityRelationEdgeStyle;fontSize=12;html=1;endArrow=ERoneToMany;exitX=0;exitY=0.5;exitDx=0;exitDy=0;entryX=1;entryY=0.5;entryDx=0;entryDy=0;" edge="1" parent="1" source="9" target="10">
                    <mxGeometry width="100" height="100" relative="1" as="geometry">
                        <mxPoint x="-290" y="460" as="sourcePoint"/>
                        <mxPoint x="-190" y="360" as="targetPoint"/>
                    </mxGeometry>
                </mxCell>
                <mxCell id="61" value="" style="fontSize=12;html=1;endArrow=ERoneToMany;entryX=0;entryY=0.5;entryDx=0;entryDy=0;exitX=1;exitY=0.5;exitDx=0;exitDy=0;" edge="1" parent="1" source="27" target="10">
                    <mxGeometry width="100" height="100" relative="1" as="geometry">
                        <mxPoint x="-320" y="310" as="sourcePoint"/>
                        <mxPoint x="-380" y="420" as="targetPoint"/>
                    </mxGeometry>
                </mxCell>
                <mxCell id="62" value="" style="edgeStyle=orthogonalEdgeStyle;fontSize=12;html=1;endArrow=ERoneToMany;entryX=0.25;entryY=0;entryDx=0;entryDy=0;exitX=0.5;exitY=1;exitDx=0;exitDy=0;" edge="1" parent="1" source="32" target="6">
                    <mxGeometry width="100" height="100" relative="1" as="geometry">
                        <mxPoint x="-110" y="20" as="sourcePoint"/>
                        <mxPoint x="-10" y="-80" as="targetPoint"/>
                    </mxGeometry>
                </mxCell>
                <mxCell id="63" value="" style="fontSize=12;html=1;endArrow=ERoneToMany;exitX=0.5;exitY=0;exitDx=0;exitDy=0;entryX=0.5;entryY=1;entryDx=0;entryDy=0;" edge="1" parent="1" source="6" target="5">
                    <mxGeometry width="100" height="100" relative="1" as="geometry">
                        <mxPoint x="460" y="40" as="sourcePoint"/>
                        <mxPoint x="380" y="50" as="targetPoint"/>
                    </mxGeometry>
                </mxCell>
                <mxCell id="64" value="" style="edgeStyle=orthogonalEdgeStyle;fontSize=12;html=1;endArrow=ERoneToMany;exitX=0.75;exitY=0;exitDx=0;exitDy=0;entryX=0.5;entryY=1;entryDx=0;entryDy=0;" edge="1" parent="1" source="6" target="3">
                    <mxGeometry width="100" height="100" relative="1" as="geometry">
                        <mxPoint x="510" y="115" as="sourcePoint"/>
                        <mxPoint x="610" y="15" as="targetPoint"/>
                    </mxGeometry>
                </mxCell>
                <mxCell id="65" value="" style="edgeStyle=entityRelationEdgeStyle;fontSize=12;html=1;endArrow=ERoneToMany;exitX=0;exitY=0.5;exitDx=0;exitDy=0;entryX=1;entryY=0.5;entryDx=0;entryDy=0;" edge="1" parent="1" source="4" target="3">
                    <mxGeometry width="100" height="100" relative="1" as="geometry">
                        <mxPoint x="830" y="40" as="sourcePoint"/>
                        <mxPoint x="800" y="-10" as="targetPoint"/>
                    </mxGeometry>
                </mxCell>
                <mxCell id="66" value="" style="edgeStyle=orthogonalEdgeStyle;fontSize=12;html=1;endArrow=ERoneToMany;entryX=0;entryY=0.5;entryDx=0;entryDy=0;exitX=1;exitY=0.25;exitDx=0;exitDy=0;" edge="1" parent="1" source="9" target="12">
                    <mxGeometry width="100" height="100" relative="1" as="geometry">
                        <mxPoint x="20" y="80" as="sourcePoint"/>
                        <mxPoint x="49.5" y="130" as="targetPoint"/>
                    </mxGeometry>
                </mxCell>
                <mxCell id="68" value="" style="fontSize=12;html=1;endArrow=ERoneToMany;exitX=0;exitY=0.25;exitDx=0;exitDy=0;" edge="1" parent="1" source="37">
                    <mxGeometry width="100" height="100" relative="1" as="geometry">
                        <mxPoint x="855" y="380" as="sourcePoint"/>
                        <mxPoint x="480" y="270" as="targetPoint"/>
                        <Array as="points"/>
                    </mxGeometry>
                </mxCell>
            </root>
        </mxGraphModel>
    </diagram>
</mxfile>